<svg width="152" height="82" viewBox="0 0 152 82" fill="none" xmlns="http://www.w3.org/2000/svg">
<path fill-rule="evenodd" clip-rule="evenodd" d="M33.5204 42.5143C33.5204 19.0345 52.5814 0 76.0944 0C99.6062 0 118.666 19.0345 118.666 42.5143H106.536C106.611 41.7949 106.659 41.0673 106.689 40.3255C106.834 36.6424 106.535 32.987 106.012 30.0136C105.017 24.5313 102.922 19.5295 100.131 15.1315C96.5057 9.70143 91.3395 5.17265 85.7601 2.77693C82.3106 1.34796 78.7543 0.658509 75.0988 0.711416V0.710826C73.8803 0.728068 72.6514 0.828923 71.4119 1.01091C69.8767 1.24356 68.3746 1.59785 66.8504 2.04981C66.5748 1.84999 66.0588 1.54672 65.4444 1.54672C64.5322 1.54672 64.3766 2.84389 64.3766 2.84389L64.6022 3.06969C64.4732 3.21011 64.336 3.34084 64.2059 3.46473C63.671 3.97467 63.2559 4.3703 64.0148 4.85473C64.7868 5.34578 65.61 5.65554 66.4103 5.95693C66.7738 6.09368 67.1326 6.22879 67.4797 6.37818C68.7977 7.04188 69.507 7.68162 69.8502 8.47936C70.2001 9.29069 70.1719 10.2662 70.028 11.5972C70.1223 12.2133 69.6165 13.2414 68.971 14.5532C68.2961 15.925 67.4683 17.6072 67.0146 19.4532C66.8018 20.3186 66.6881 21.2553 66.6733 22.1964C66.6419 24.1205 67.0196 26.0536 67.7922 27.3798C68.5855 28.6938 69.5474 29.7666 70.5214 30.8528L70.5215 30.8529C70.9066 31.2823 71.2935 31.7139 71.6727 32.1633C72.3816 33.1663 72.6675 33.9256 72.964 34.7131C73.0662 34.9846 73.1697 35.2594 73.2923 35.5487C73.7795 37.1894 73.4467 38.6579 73.1141 40.1259C73.0188 40.5462 72.9235 40.9665 72.8475 41.3909C72.8299 41.7976 72.8524 42.1698 72.9117 42.5143H33.5204ZM86.2813 42.5143H82.569C84.063 40.5924 85.6717 38.966 87.1354 38.1395C87.5538 38.1849 87.3135 38.6822 87.0832 39.1584C86.9671 39.3984 86.8536 39.6333 86.8284 39.8021C86.6081 40.7273 86.4308 41.6248 86.2813 42.5143ZM91.592 42.5143H90.0636C90.5173 41.0735 90.9497 39.6344 91.3125 38.1998C91.5338 36.7176 91.2323 35.9495 90.9089 35.1257L90.9088 35.1255L90.9087 35.1252C90.8384 34.9461 90.7671 34.7643 90.6999 34.5721C90.6942 34.5845 90.6715 34.546 90.6307 34.4769L90.6306 34.4767C90.4958 34.2488 90.1646 33.6885 89.6062 33.5295C87.6707 32.9793 84.334 34.4895 83.5116 34.8617C83.4559 34.887 83.4118 34.907 83.3804 34.9208L79.8214 36.6559C79.1442 36.1196 78.908 35.3759 78.7665 34.7128C78.5586 33.7392 77.7117 32.3325 77.4472 32.1534C76.586 31.189 75.8609 30.2098 75.3017 29.3776C74.9056 28.7879 74.6575 28.2651 74.4111 27.746C74.2623 27.4325 74.1141 27.1203 73.9344 26.7955C73.9833 26.6953 74.03 26.6004 74.0746 26.5099L74.0754 26.5084L74.0764 26.506L74.078 26.503C74.8391 24.9584 74.9461 24.7414 73.4762 23.0643C73.4007 22.9782 73.3301 22.9003 73.2584 22.8212C73.0781 22.6223 72.8908 22.4156 72.6021 22.0513C74.9309 22.2936 76.8918 21.1378 77.1052 19.3042C77.3352 17.3305 75.4531 15.3179 72.8955 14.7987C73.069 14.4094 73.2325 14.017 73.3728 13.6239C73.855 12.2726 74.3017 10.8302 74.36 9.70214C74.4702 7.32048 73.5235 5.40329 71.9378 4.28621C70.6794 3.43934 69.6915 2.88145 68.4022 2.51794C70.2777 1.94092 72.2515 1.63222 74.2278 1.5492C74.4117 1.54542 74.5938 1.54294 74.7764 1.54294L74.7771 1.54176C83.9935 1.55652 91.9799 6.92473 97.1979 13.1522C97.9604 23.6286 95.8727 33.6712 91.592 42.5143ZM92.8262 42.5143H105.387C105.618 40.3028 105.608 37.9954 105.564 35.6988C105.233 31.8933 104.404 28.0422 103.432 24.5639C102.776 22.333 101.808 20.0812 100.558 17.8957C99.9191 16.8077 99.1886 15.712 98.3738 14.631C98.3917 15.0095 98.406 15.3883 98.4166 15.7671C98.4697 17.6994 98.4282 19.6331 98.2923 21.5613C98.2238 22.5252 98.1319 23.4872 98.0167 24.4467C97.9011 25.406 97.7621 26.3623 97.5997 27.3149C97.4374 28.2676 97.2515 29.2161 97.0424 30.1596C96.8335 31.103 96.6013 32.0411 96.3461 32.973C96.0915 33.9051 95.8136 34.8307 95.5127 35.7489C95.212 36.6674 94.889 37.5784 94.5439 38.4812C94.0212 39.8462 93.4482 41.1915 92.8262 42.5143ZM68.5899 4.24995C67.4373 3.87724 66.6407 3.7099 66.2255 3.72407C66.0372 3.73021 65.9291 3.77391 65.9001 3.85268L66.0711 3.90121L65.7611 3.97266C65.7694 3.97526 65.7775 3.97798 65.7857 3.98081C65.8 3.98554 65.8143 3.99038 65.8288 3.99475C65.9071 4.04435 65.9372 4.10292 65.9666 4.16008C66.0061 4.23708 66.0441 4.31125 66.1965 4.35648C66.4435 4.42923 66.7171 4.50386 67.0001 4.58098H67.0002C67.8766 4.82013 68.8423 5.08348 69.3803 5.39231C70.1479 5.84308 70.822 6.62488 71.3228 7.4159C71.8117 8.18908 71.9864 9.20507 71.9901 10.2146C72.171 9.38292 72.2626 8.70882 72.2743 8.33292C72.2835 7.33288 71.8105 6.49935 71.0872 5.81238C70.4118 5.17017 69.518 4.65349 68.5899 4.24995ZM53.4769 17.6254C49.9777 17.6254 47.1311 20.4726 47.1311 23.9718C47.1311 27.4711 49.9777 30.3214 53.4769 30.3214C56.9762 30.3214 59.8265 27.4711 59.8265 23.9718C59.8265 20.4726 56.9762 17.6254 53.4769 17.6254ZM45.2249 23.3364C45.5743 23.3364 45.8604 23.6219 45.8604 23.9718C45.8604 24.3249 45.578 24.6073 45.2287 24.6073H43.9578C43.6079 24.6073 43.3225 24.3212 43.3225 23.9718C43.3228 23.8034 43.3898 23.642 43.5089 23.5229C43.628 23.4038 43.7894 23.3367 43.9578 23.3364H45.2249ZM48.8017 17.145C48.9192 17.3497 49.1307 17.4605 49.3527 17.4605C49.4637 17.4611 49.5728 17.4322 49.669 17.3769C49.971 17.2021 50.0755 16.8122 49.9008 16.5096L49.2655 15.4105C49.0908 15.1078 48.7008 15.0039 48.3982 15.1785C48.0956 15.3532 47.9915 15.7431 48.1663 16.0458L48.8017 17.145ZM45.551 18.6605L46.6501 19.296C46.9528 19.4706 47.0567 19.8606 46.882 20.1632C46.8257 20.2593 46.7452 20.3391 46.6485 20.3945C46.5518 20.45 46.4423 20.4792 46.3309 20.4793C46.2199 20.4793 46.111 20.4502 46.0147 20.3951L44.9156 19.7597C44.6129 19.5851 44.509 19.195 44.6836 18.8924C44.8583 18.5905 45.2483 18.4858 45.551 18.6605ZM46.0147 27.548L44.9156 28.1834C44.6129 28.358 44.509 28.748 44.6836 29.0507C44.8012 29.256 45.0134 29.3668 45.2348 29.3668C45.3458 29.3672 45.4549 29.3381 45.551 29.2825L46.6501 28.6471C46.9528 28.4725 47.0567 28.0825 46.882 27.7798C46.7072 27.4779 46.3173 27.3732 46.0147 27.548ZM52.8415 32.2238C52.8415 31.8745 53.1276 31.5885 53.4769 31.5885C53.5604 31.5884 53.643 31.6048 53.7201 31.6367C53.7973 31.6686 53.8673 31.7154 53.9264 31.7744C53.9854 31.8334 54.0322 31.9035 54.0641 31.9806C54.096 32.0577 54.1124 32.1404 54.1124 32.2238V33.4947C54.112 33.6631 54.0449 33.8244 53.9258 33.9435C53.8067 34.0625 53.6453 34.1296 53.4769 34.13C53.1276 34.13 52.8415 33.844 52.8415 33.4947V32.2238ZM62.9998 23.3364H61.7289C61.3796 23.3364 61.0942 23.6219 61.0942 23.9718C61.0942 24.3212 61.3796 24.6073 61.7289 24.6073H62.9998C63.3491 24.6073 63.6351 24.3212 63.6351 23.9718C63.6351 23.6219 63.3491 23.3364 62.9998 23.3364ZM48.8017 30.8018C48.9764 30.4991 49.3663 30.3952 49.669 30.5699C49.7415 30.6113 49.8051 30.6666 49.8562 30.7326C49.9073 30.7986 49.9448 30.8741 49.9666 30.9547C49.9885 31.0353 49.9942 31.1194 49.9834 31.2022C49.9726 31.285 49.9456 31.3648 49.9039 31.4372L49.2685 32.5363C49.2122 32.6325 49.1317 32.7122 49.035 32.7677C48.9383 32.8231 48.8288 32.8523 48.7174 32.8524C48.6065 32.8524 48.4975 32.8234 48.4012 32.7682C48.0987 32.5936 47.9946 32.2036 48.1694 31.9009L48.8017 30.8018ZM58.1528 30.8018C57.9782 30.4991 57.5882 30.3952 57.2855 30.5699C56.983 30.7445 56.879 31.1345 57.0537 31.4372L57.6891 32.5363C57.8066 32.7418 58.0181 32.8524 58.2402 32.8524C58.3478 32.8524 58.4586 32.8254 58.5564 32.7682C58.8584 32.5936 58.9629 32.2036 58.7882 31.9009L58.1528 30.8018ZM60.9429 27.548L62.042 28.1834C62.3441 28.358 62.4486 28.748 62.274 29.0507C62.2174 29.1468 62.1368 29.2266 62.0401 29.282C61.9433 29.3375 61.8337 29.3667 61.7222 29.3668C61.6115 29.3667 61.5027 29.3376 61.4066 29.2825L60.3075 28.6471C60.0048 28.4725 59.9009 28.0825 60.0756 27.7798C60.2502 27.4779 60.6403 27.3732 60.9429 27.548ZM60.6231 20.4824C60.7307 20.4824 60.842 20.456 60.9392 20.3988L62.0383 19.7634C62.341 19.5887 62.445 19.1988 62.2703 18.8961C62.0955 18.5935 61.7056 18.4895 61.403 18.6643L60.3075 19.296C60.0048 19.4706 59.9009 19.8606 60.0756 20.1632C60.1305 20.26 60.2101 20.3405 60.3063 20.3966C60.4025 20.4527 60.5118 20.4823 60.6231 20.4824ZM57.6017 17.4605C57.4908 17.4607 57.3818 17.4318 57.2855 17.3769C56.983 17.2021 56.879 16.8122 57.0537 16.5096L57.6891 15.4105C57.8637 15.1078 58.2537 15.0039 58.5564 15.1785C58.8584 15.3532 58.9629 15.7431 58.7882 16.0458L58.1528 17.145C58.0964 17.241 58.0159 17.3207 57.9192 17.376C57.8225 17.4314 57.7131 17.4605 57.6017 17.4605ZM53.4769 16.3545C53.827 16.3545 54.1124 16.0692 54.1124 15.7198V14.4521C54.1124 14.3687 54.096 14.2861 54.0641 14.209C54.0321 14.1319 53.9853 14.0619 53.9263 14.0029C53.8673 13.944 53.7972 13.8972 53.7201 13.8654C53.643 13.8335 53.5603 13.8172 53.4769 13.8173C53.3935 13.8172 53.3109 13.8336 53.2338 13.8654C53.1567 13.8973 53.0866 13.944 53.0276 14.003C52.9686 14.0619 52.9218 14.132 52.8899 14.209C52.8579 14.2861 52.8415 14.3687 52.8415 14.4521V15.7228C52.8415 16.0723 53.1276 16.3545 53.4769 16.3545Z" fill="#8C5BF1"/>
<path d="M12.4008 80.134H10.5186L10.1495 81.005H9.42863L11.1213 77.243H11.8103L13.5079 81.005H12.7772L12.4008 80.134ZM12.1694 79.5853L11.4608 77.9418L10.7572 79.5853H12.1694ZM18.1724 81.005L18.165 78.5125L16.9299 80.5744H16.6174L15.3824 78.5445V81.005H14.7156V77.243H15.2913L16.7848 79.7378L18.2511 77.243H18.8268L18.8317 81.005H18.1724ZM22.1256 77.243C22.4515 77.243 22.7358 77.2972 22.9768 77.4054C23.2192 77.5125 23.4049 77.6662 23.533 77.8679C23.662 78.0685 23.7272 78.3058 23.7272 78.5815C23.7272 78.8539 23.662 79.092 23.533 79.2949C23.4049 79.4967 23.2192 79.6517 22.9768 79.76C22.7358 79.867 22.4515 79.9199 22.1256 79.9199H21.2767V81.005H20.578V77.243H22.1256ZM22.0936 79.3294C22.3986 79.3294 22.63 79.2648 22.7874 79.135C22.9448 79.0059 23.0236 78.8213 23.0236 78.5815C23.0236 78.3422 22.9448 78.1576 22.7874 78.0278C22.63 77.8988 22.3986 77.8335 22.0936 77.8335H21.2767V79.3294H22.0936ZM25.2099 77.243H25.9087V80.4145H27.8769V81.005H25.2099V77.243ZM29.1594 77.243H29.8582V81.005H29.1594V77.243ZM34.045 80.134H32.1629L31.7938 81.005H31.073L32.7657 77.243H33.4545L35.1522 81.005H34.4215L34.045 80.134ZM33.8138 79.5853L33.1052 77.9418L32.4016 79.5853H33.8138ZM39.7035 77.243V81.005H39.1278L37.0538 78.4584V81.005H36.3599V77.243H36.9357L39.0097 79.7895V77.243H39.7035ZM41.4432 77.243H43.0892C43.489 77.243 43.8452 77.3212 44.1569 77.4768C44.4682 77.6331 44.7106 77.8532 44.8828 78.1386C45.0549 78.4228 45.1411 78.7512 45.1411 79.1252C45.1411 79.4979 45.0549 79.8263 44.8828 80.1118C44.7106 80.3959 44.4682 80.6156 44.1569 80.7711C43.8452 80.9274 43.489 81.005 43.0892 81.005H41.4432V77.243ZM43.0547 80.4145C43.3316 80.4145 43.5745 80.3621 43.783 80.2569C43.9928 80.1505 44.1544 79.9998 44.2677 79.8043C44.3808 79.6093 44.4374 79.3829 44.4374 79.1252C44.4374 78.8662 44.3808 78.6392 44.2677 78.4437C44.1544 78.2487 43.9928 78.0986 43.783 77.9935C43.5745 77.8871 43.3316 77.8335 43.0547 77.8335H42.142V80.4145H43.0547ZM48.3691 81.059C47.9866 81.059 47.6415 80.9766 47.3334 80.8106C47.0246 80.6432 46.7828 80.412 46.6076 80.1167C46.4316 79.8202 46.3443 79.4893 46.3443 79.1252C46.3443 78.7598 46.4316 78.4289 46.6076 78.1337C46.7828 77.8372 47.0246 77.6059 47.3334 77.4398C47.6415 77.2725 47.9866 77.1889 48.3691 77.1889C48.7529 77.1889 49.0987 77.2725 49.4074 77.4398C49.7156 77.6059 49.9573 77.8359 50.1332 78.1312C50.3085 78.4252 50.3965 78.7561 50.3965 79.1252C50.3965 79.4943 50.3085 79.8258 50.1332 80.1192C49.9573 80.4132 49.7156 80.6432 49.4074 80.8106C49.0987 80.9766 48.7529 81.059 48.3691 81.059ZM48.3691 80.4464C48.62 80.4464 48.8453 80.3898 49.0458 80.2766C49.2447 80.1662 49.4091 80.0026 49.5205 79.8043C49.635 79.6012 49.6928 79.375 49.6928 79.1252C49.6928 78.8742 49.635 78.6479 49.5205 78.4461C49.4056 78.2431 49.2475 78.0844 49.0458 77.9713C48.8453 77.8581 48.62 77.8016 48.3691 77.8016C48.1194 77.8016 47.8943 77.8581 47.6925 77.9713C47.492 78.0844 47.3346 78.2431 47.2201 78.4461C47.1051 78.6479 47.0479 78.8742 47.0479 79.1252C47.0479 79.375 47.1051 79.6012 47.2201 79.8043C47.3309 80.0024 47.4944 80.1659 47.6925 80.2766C47.8943 80.3898 48.1194 80.4464 48.3691 80.4464ZM55.8235 81.059C55.4427 81.059 55.099 80.9766 54.7926 80.8106C54.4876 80.6432 54.2476 80.4132 54.0742 80.1192C53.9002 79.8258 53.8134 79.4943 53.8134 79.1252C53.8134 78.7561 53.9008 78.4252 54.0767 78.1312C54.252 77.8359 54.4931 77.6059 54.8001 77.4398C55.1063 77.2725 55.4496 77.1889 55.8284 77.1889C56.1366 77.1889 56.4176 77.243 56.6724 77.3513C56.9264 77.4583 57.141 77.6139 57.3169 77.8187L56.8668 78.242C56.5942 77.9485 56.259 77.8016 55.8605 77.8016C55.6026 77.8016 55.3714 77.8581 55.1666 77.9713C54.9665 78.081 54.8011 78.2446 54.6893 78.4437C54.5743 78.6442 54.5171 78.8712 54.5171 79.1252C54.5171 79.3798 54.5743 79.6068 54.6893 79.8067C54.8037 80.0073 54.963 80.1635 55.1666 80.2766C55.3714 80.3898 55.6026 80.4464 55.8605 80.4464C56.259 80.4464 56.5942 80.2981 56.8668 80.0011L57.3169 80.4292C57.141 80.6346 56.9258 80.7908 56.6699 80.8991C56.414 81.0055 56.1317 81.059 55.8235 81.059ZM60.4756 81.059C60.093 81.059 59.748 80.9766 59.4397 80.8106C59.131 80.6432 58.8893 80.412 58.714 80.1167C58.5381 79.8202 58.4507 79.4893 58.4507 79.1252C58.4507 78.7598 58.5381 78.4289 58.714 78.1337C58.8893 77.8372 59.131 77.6059 59.4397 77.4398C59.748 77.2725 60.093 77.1889 60.4756 77.1889C60.8594 77.1889 61.2051 77.2725 61.5139 77.4398C61.822 77.6059 62.0637 77.8359 62.2397 78.1312C62.415 78.4252 62.5029 78.7561 62.5029 79.1252C62.5029 79.4943 62.415 79.8258 62.2397 80.1192C62.0637 80.4132 61.822 80.6432 61.5139 80.8106C61.2051 80.9766 60.8594 81.059 60.4756 81.059ZM60.4756 80.4464C60.7265 80.4464 60.9516 80.3898 61.1521 80.2766C61.3511 80.1662 61.5155 80.0026 61.627 79.8043C61.7414 79.6012 61.7993 79.375 61.7993 79.1252C61.7993 78.8742 61.7414 78.6479 61.627 78.4461C61.512 78.2431 61.354 78.0844 61.1521 77.9713C60.9516 77.8581 60.7265 77.8016 60.4756 77.8016C60.2259 77.8016 60.0007 77.8581 59.799 77.9713C59.5985 78.0844 59.441 78.2431 59.3266 78.4461C59.2116 78.6479 59.1544 78.8742 59.1544 79.1252C59.1544 79.375 59.2116 79.6012 59.3266 79.8043C59.4374 80.0024 59.6009 80.1659 59.799 80.2766C60.0007 80.3898 60.2259 80.4464 60.4756 80.4464ZM67.3177 77.243V81.005H66.742L64.6679 78.4584V81.005H63.9741V77.243H64.5498L66.6239 79.7895V77.243H67.3177ZM71.8795 80.4193V81.005H69.0574V77.243H71.8032V77.8286H69.7561V78.8078H71.5718V79.3811H69.7561V80.4193H71.8795ZM75.7578 81.005L74.7367 79.5754L73.7279 81.005H72.9333L74.3283 79.0859L73.0071 77.243H73.7969L74.7588 78.5815L75.711 77.243H76.4688L75.1525 79.0587L76.5647 81.005H75.7578ZM79.5997 81.059C79.2172 81.059 78.8721 80.9766 78.5639 80.8106C78.2552 80.6432 78.0134 80.412 77.8382 80.1167C77.6622 79.8202 77.5748 79.4893 77.5748 79.1252C77.5748 78.7598 77.6622 78.4289 77.8382 78.1337C78.0134 77.8372 78.2552 77.6059 78.5639 77.4398C78.8721 77.2725 79.2172 77.1889 79.5997 77.1889C79.9835 77.1889 80.3292 77.2725 80.638 77.4398C80.9461 77.6059 81.1879 77.8359 81.3638 78.1312C81.5391 78.4252 81.6271 78.7561 81.6271 79.1252C81.6271 79.4943 81.5391 79.8258 81.3638 80.1192C81.1879 80.4132 80.9461 80.6432 80.638 80.8106C80.3292 80.9766 79.9835 81.059 79.5997 81.059ZM79.5997 80.4464C79.8507 80.4464 80.0758 80.3898 80.2763 80.2766C80.4753 80.1662 80.6396 80.0026 80.7512 79.8043C80.8656 79.6012 80.9235 79.375 80.9235 79.1252C80.9235 78.8742 80.8656 78.6479 80.7512 78.4461C80.6361 78.2431 80.4781 78.0844 80.2763 77.9713C80.0758 77.8581 79.8507 77.8016 79.5997 77.8016C79.3501 77.8016 79.1248 77.8581 78.9231 77.9713C78.7226 78.0844 78.5652 78.2431 78.4507 78.4461C78.3357 78.6479 78.2786 78.8742 78.2786 79.1252C78.2786 79.375 78.3357 79.6012 78.4507 79.8043C78.5615 80.0024 78.725 80.1659 78.9231 80.2766C79.1248 80.3898 79.3501 80.4464 79.5997 80.4464ZM79.9885 76.9379C79.898 76.9379 79.82 76.9201 79.7548 76.8838C79.6889 76.8482 79.6077 76.794 79.5111 76.7215C79.4534 76.6759 79.406 76.6415 79.3685 76.6181C79.3303 76.5953 79.2934 76.5836 79.2577 76.5836C79.2221 76.5829 79.1867 76.5903 79.1544 76.6053C79.122 76.6202 79.0934 76.6422 79.0708 76.6697C79.0228 76.7257 78.9975 76.8045 78.9945 76.9059H78.6353C78.6384 76.6864 78.6925 76.5117 78.7977 76.3819C78.9041 76.2508 79.0437 76.1851 79.2159 76.1851C79.3045 76.1851 79.3813 76.2035 79.4473 76.2391C79.5142 76.2755 79.596 76.329 79.6932 76.3992C79.7504 76.4471 79.7978 76.4822 79.8359 76.5049C79.8735 76.5282 79.9103 76.5393 79.9467 76.5393C80.0205 76.5393 80.0807 76.5135 80.1287 76.4606C80.1779 76.4065 80.205 76.3315 80.2099 76.2343H80.5692C80.5623 76.4446 80.5063 76.6145 80.4018 76.7435C80.2985 76.8733 80.1607 76.9379 79.9885 76.9379ZM85.9203 80.4193V81.005H83.0983V77.243H85.8441V77.8286H83.797V78.8078H85.6127V79.3811H83.797V80.4193H85.9203ZM88.5955 81.059C88.3052 81.059 88.0247 81.0178 87.7541 80.936C87.4847 80.8524 87.2706 80.7429 87.1119 80.6064L87.3555 80.065C87.5093 80.1869 87.6981 80.2859 87.9214 80.3627C88.1459 80.4402 88.3704 80.4784 88.5955 80.4784C88.876 80.4784 89.0851 80.4341 89.2228 80.3455C89.3607 80.2557 89.4295 80.1363 89.4295 79.9887C89.4295 79.8823 89.3908 79.7945 89.3139 79.7255C89.2364 79.6555 89.1392 79.6001 89.0211 79.5606C88.903 79.5201 88.7412 79.4745 88.5365 79.4254C88.2492 79.3564 88.0173 79.2888 87.8402 79.2211C87.664 79.1531 87.507 79.0433 87.3825 78.9013C87.2558 78.7573 87.1931 78.5612 87.1931 78.3133C87.1931 78.1054 87.2497 77.9166 87.3628 77.7474C87.4761 77.5771 87.6458 77.4417 87.8722 77.3415C88.0997 77.2399 88.379 77.1889 88.7086 77.1889C88.9381 77.1889 89.1638 77.2178 89.3852 77.275C89.608 77.3328 89.7999 77.4153 89.9609 77.5235L89.7395 78.0648C89.5785 77.9695 89.4056 77.8959 89.2253 77.8459C89.0464 77.7954 88.8723 77.7696 88.7038 77.7696C88.4282 77.7696 88.2228 77.8163 88.0886 77.9097C87.954 78.0033 87.8869 78.1275 87.8869 78.2813C87.8869 78.3883 87.9251 78.4757 88.0025 78.5445C88.0794 78.6122 88.1772 78.6651 88.2953 78.7044C88.4134 78.7439 88.574 78.7893 88.7776 78.8398C89.0581 78.9038 89.2874 78.9714 89.4665 79.0416C89.6428 79.1092 89.7999 79.219 89.9241 79.3614C90.052 79.5041 90.116 79.6979 90.116 79.9421C90.116 80.1488 90.0594 80.3369 89.9462 80.5054C89.8342 80.6746 89.6639 80.8093 89.4345 80.9089C89.2044 81.0086 88.9252 81.059 88.5955 81.059Z" fill="#8C5BF1"/>
<path d="M95.9266 78.4313L94.0715 79.1251L95.9266 79.8164V80.3749L93.4491 79.4154V78.8348L95.9266 77.8728V78.4313ZM98.2039 77.8285V78.9725H100.02V79.5655H98.2039V81.0048H97.5052V77.2429H100.251V77.8285H98.2039ZM103.416 81.0589C103.033 81.0589 102.688 80.9765 102.38 80.8105C102.071 80.6431 101.829 80.4119 101.654 80.1166C101.478 79.8201 101.391 79.4892 101.391 79.1251C101.391 78.7597 101.478 78.4288 101.654 78.1335C101.829 77.8371 102.071 77.6058 102.38 77.4397C102.688 77.2724 103.033 77.1888 103.416 77.1888C103.799 77.1888 104.145 77.2724 104.454 77.4397C104.762 77.6058 105.004 77.8358 105.18 78.1311C105.355 78.4251 105.443 78.756 105.443 79.1251C105.443 79.4941 105.355 79.8256 105.18 80.1191C105.004 80.4131 104.762 80.6431 104.454 80.8105C104.145 80.9765 103.799 81.0589 103.416 81.0589ZM103.416 80.4462C103.667 80.4462 103.892 80.3897 104.092 80.2765C104.291 80.166 104.456 80.0025 104.567 79.8041C104.681 79.6011 104.739 79.3749 104.739 79.1251C104.739 78.8741 104.681 78.6477 104.567 78.446C104.452 78.243 104.294 78.0843 104.092 77.9712C103.892 77.858 103.667 77.8015 103.416 77.8015C103.166 77.8015 102.941 77.858 102.739 77.9712C102.538 78.0843 102.381 78.243 102.267 78.446C102.152 78.6477 102.094 78.8741 102.094 79.1251C102.094 79.3749 102.152 79.6011 102.267 79.8041C102.377 80.0023 102.541 80.1658 102.739 80.2765C102.941 80.3897 103.166 80.4462 103.416 80.4462ZM109.377 81.0048L108.607 79.9025C108.576 79.9063 108.527 79.9075 108.462 79.9075H107.613V81.0048H106.914V77.2429H108.462C108.788 77.2429 109.072 77.2971 109.313 77.4052C109.555 77.5124 109.741 77.6661 109.869 77.8678C109.998 78.0684 110.063 78.3057 110.063 78.5814C110.063 78.8655 109.995 79.1097 109.857 79.3145C109.719 79.5181 109.521 79.6701 109.264 79.7697L110.127 81.0048H109.377ZM109.36 78.5814C109.36 78.3421 109.281 78.1575 109.124 78.0277C108.966 77.8987 108.735 77.8333 108.43 77.8333H107.613V79.3342H108.43C108.735 79.3342 108.966 79.2691 109.124 79.1374C109.281 79.0064 109.36 78.8212 109.36 78.5814ZM112.336 77.8333H111.091V77.2429H114.282V77.8333H113.034V81.0048H112.336V77.8333ZM117.979 80.1339H116.097L115.728 81.0048H115.007L116.7 77.2429H117.389L119.086 81.0048H118.356L117.979 80.1339ZM117.748 79.5852L117.039 77.9416L116.336 79.5852H117.748ZM120.295 77.2429H120.992V80.4144H122.961V81.0048H120.295V77.2429ZM127.065 80.4192V81.0048H124.244V77.2429H126.989V77.8285H124.943V78.8076H126.758V79.381H124.943V80.4192H127.065ZM131.497 80.4144V81.0048H128.292V80.5373L130.504 77.8333H128.329V77.2429H131.429V77.7104L129.214 80.4144H131.497ZM135.308 80.1339H133.427L133.057 81.0048H132.337L134.029 77.2429H134.718L136.416 81.0048H135.685L135.308 80.1339ZM135.078 79.5852L134.369 77.9416L133.665 79.5852H135.078ZM138.731 76.4802H139.333L137.559 81.5411H136.957L138.731 76.4802ZM142.67 78.8348V79.4154L140.193 80.3749V79.8164L142.046 79.1251L140.193 78.4313V77.8728L142.67 78.8348ZM21.5656 49.6897H4.95937C2.6762 49.6897 0.807556 51.5577 0.807556 53.8416V70.4477H4.95937V62.1446H21.5656V57.9928H4.95937V53.8416H21.5656V49.6897ZM44.3993 53.8416C44.3993 51.5577 42.5312 49.6897 40.248 49.6897H23.6412V70.4477H27.7931V62.1446H30.2319L37.9126 69.8252C38.3278 70.2404 38.8468 70.4477 39.4177 70.4477H44.3993V66.2959H40.248L36.0962 62.1446H40.248C42.5312 62.1446 44.3993 60.2766 44.3993 57.9928V53.8416ZM40.248 53.8416V57.9928H27.7931V53.8416H40.248ZM63.0817 70.4477C65.3908 70.4477 67.233 68.5539 67.233 66.2959V53.8416C67.233 51.5577 65.365 49.6897 63.0817 49.6897H50.6269C48.3436 49.6897 46.4749 51.5577 46.4749 53.8416V66.2959C46.4749 68.5796 48.3436 70.4477 50.6269 70.4477H63.0817ZM50.6269 53.8416H63.0817V66.2959H50.6269V53.8416ZM73.4606 70.4477V56.7737L86.5122 69.8252C86.9015 70.214 87.42 70.4477 87.9914 70.4477C89.133 70.4477 90.0668 69.5134 90.0668 68.3718V49.6897H85.9155V63.3643L72.8639 50.3122C72.4746 49.9234 71.9554 49.6897 71.3847 49.6897C70.243 49.6897 69.3087 50.624 69.3087 51.7656V70.4477H73.4606ZM112.9 49.6897H92.1424V53.8416H100.446V70.4477H104.597V53.8416H112.9V49.6897ZM126.179 49.0103H118.574C117.529 49.0103 116.674 49.8659 116.674 50.9115V56.6146C116.674 57.6603 117.529 58.5159 118.574 58.5159H126.179V56.6146H118.574V54.714H126.179V52.8127H118.574V50.9115H126.179V49.0103ZM131.122 58.5159V52.2543L137.099 58.2304C137.277 58.4088 137.514 58.5159 137.775 58.5159C138.298 58.5159 138.726 58.0884 138.726 57.5655V49.0103H136.826V55.2719L130.849 49.2957C130.671 49.1172 130.433 49.0103 130.171 49.0103C129.649 49.0103 129.221 49.4384 129.221 49.9612V58.5159H131.122ZM149.372 58.5159C150.417 58.5159 151.273 57.6603 151.273 56.6146V50.9115C151.273 49.8659 150.417 49.0103 149.372 49.0103H141.768V58.5159H149.372ZM143.668 50.9115H149.372V56.6146H143.668V50.9115Z" fill="#ECECEC"/>
<path d="M124.278 71.2482C125.324 71.2482 126.179 70.3927 126.179 69.3469V63.6439C126.179 62.5983 125.324 61.7427 124.278 61.7427H116.674V71.2482H124.278ZM118.574 63.6439H124.278V69.3469H118.574V63.6439ZM131.122 61.7427C130.076 61.7427 129.221 62.5983 129.221 63.6439V71.2482H131.122V67.4464H136.826V71.2482H138.726V63.6439C138.726 62.5983 137.871 61.7427 136.826 61.7427H131.122ZM131.122 63.6439H136.826V65.5452H131.122V63.6439ZM149.372 65.5452H143.668V61.7427H141.768V65.5452C141.768 66.5908 142.623 67.4464 143.668 67.4464H149.372V69.3469H141.768V71.2482H149.372C150.417 71.2482 151.273 70.3927 151.273 69.3469V61.7427H149.372V65.5452Z" fill="#8C5BF1"/>
</svg>
